<svg xmlns="http://www.w3.org/2000/svg" viewBox="0 0 64 64">
  <defs>
    <linearGradient id="bg" x1="0" y1="0" x2="1" y2="1">
      <stop offset="0%" stop-color="#6366f1"/>
      <stop offset="100%" stop-color="#a855f7"/>
    </linearGradient>
    <linearGradient id="sheen" x1="0" y1="0" x2="0" y2="1">
      <stop offset="0%" stop-color="#ffffff" stop-opacity="0.22"/>
      <stop offset="55%" stop-color="#ffffff" stop-opacity="0"/>
    </linearGradient>
  </defs>

  <!-- rounded card with a soft top sheen -->
  <rect width="64" height="64" rx="14" fill="url(#bg)"/>
  <rect width="64" height="64" rx="14" fill="url(#sheen)"/>

  <!-- open book, centered -->
  <g fill="#ffffff">
    <path d="M 11 23 Q 22 18.5, 32 23 L 32 47 Q 22 42.5, 11 47 Z"/>
    <path d="M 53 23 Q 42 18.5, 32 23 L 32 47 Q 42 42.5, 53 47 Z"/>
  </g>

  <!-- page lines + spine, faint in the brand purple -->
  <g stroke="#6366f1" stroke-width="1.5" stroke-linecap="round" opacity="0.55">
    <line x1="14" y1="30" x2="28" y2="29"/>
    <line x1="14" y1="35" x2="28" y2="34"/>
    <line x1="14" y1="40" x2="28" y2="39"/>
    <line x1="36" y1="29" x2="50" y2="30"/>
    <line x1="36" y1="34" x2="50" y2="35"/>
    <line x1="36" y1="39" x2="50" y2="40"/>
    <line x1="32" y1="23" x2="32" y2="47"/>
  </g>

  <!-- live "studying now" dot, ringed in white so it pops on the gradient -->
  <circle cx="50" cy="14" r="6.5" fill="#ffffff"/>
  <circle cx="50" cy="14" r="4.5" fill="#22c55e"/>
</svg>
